<mxfile host="app.diagrams.net" agent="Mozilla/5.0 (Macintosh; Intel Mac OS X 10.15; rv:133.0) Gecko/20100101 Firefox/133.0" version="25.0.0">
  <diagram name="Page-1" id="QXoPpjPjjvawaE9_gzk-">
    <mxGraphModel dx="1099" dy="1129" grid="1" gridSize="10" guides="1" tooltips="1" connect="1" arrows="1" fold="1" page="1" pageScale="1" pageWidth="850" pageHeight="1100" math="0" shadow="0">
      <root>
        <mxCell id="0" />
        <mxCell id="1" parent="0" />
        <mxCell id="w0JvV6dThhApG_6P3n8y-1" value="&lt;div&gt;ExercisesTable&lt;/div&gt;&lt;div&gt;&lt;br&gt;&lt;/div&gt;" style="sketch=0;points=[[0,0,0],[0.25,0,0],[0.5,0,0],[0.75,0,0],[1,0,0],[0,1,0],[0.25,1,0],[0.5,1,0],[0.75,1,0],[1,1,0],[0,0.25,0],[0,0.5,0],[0,0.75,0],[1,0.25,0],[1,0.5,0],[1,0.75,0]];outlineConnect=0;fontColor=#232F3E;fillColor=#C925D1;strokeColor=#ffffff;dashed=0;verticalLabelPosition=bottom;verticalAlign=top;align=center;html=1;fontSize=12;fontStyle=0;aspect=fixed;shape=mxgraph.aws4.resourceIcon;resIcon=mxgraph.aws4.dynamodb;" vertex="1" parent="1">
          <mxGeometry x="920" y="125" width="78" height="78" as="geometry" />
        </mxCell>
        <mxCell id="w0JvV6dThhApG_6P3n8y-2" value="&lt;div&gt;SetsTable&lt;/div&gt;&lt;div&gt;&lt;br&gt;&lt;/div&gt;" style="sketch=0;points=[[0,0,0],[0.25,0,0],[0.5,0,0],[0.75,0,0],[1,0,0],[0,1,0],[0.25,1,0],[0.5,1,0],[0.75,1,0],[1,1,0],[0,0.25,0],[0,0.5,0],[0,0.75,0],[1,0.25,0],[1,0.5,0],[1,0.75,0]];outlineConnect=0;fontColor=#232F3E;fillColor=#C925D1;strokeColor=#ffffff;dashed=0;verticalLabelPosition=bottom;verticalAlign=top;align=center;html=1;fontSize=12;fontStyle=0;aspect=fixed;shape=mxgraph.aws4.resourceIcon;resIcon=mxgraph.aws4.dynamodb;" vertex="1" parent="1">
          <mxGeometry x="920" y="265" width="78" height="78" as="geometry" />
        </mxCell>
        <mxCell id="w0JvV6dThhApG_6P3n8y-3" value="&lt;div&gt;WeightTable&lt;/div&gt;&lt;div&gt;&lt;br&gt;&lt;/div&gt;" style="sketch=0;points=[[0,0,0],[0.25,0,0],[0.5,0,0],[0.75,0,0],[1,0,0],[0,1,0],[0.25,1,0],[0.5,1,0],[0.75,1,0],[1,1,0],[0,0.25,0],[0,0.5,0],[0,0.75,0],[1,0.25,0],[1,0.5,0],[1,0.75,0]];outlineConnect=0;fontColor=#232F3E;fillColor=#C925D1;strokeColor=#ffffff;dashed=0;verticalLabelPosition=bottom;verticalAlign=top;align=center;html=1;fontSize=12;fontStyle=0;aspect=fixed;shape=mxgraph.aws4.resourceIcon;resIcon=mxgraph.aws4.dynamodb;" vertex="1" parent="1">
          <mxGeometry x="920" y="415" width="78" height="78" as="geometry" />
        </mxCell>
        <mxCell id="w0JvV6dThhApG_6P3n8y-4" value="&lt;div&gt;APIGW&lt;/div&gt;&lt;div&gt;&lt;br&gt;&lt;/div&gt;" style="sketch=0;points=[[0,0,0],[0.25,0,0],[0.5,0,0],[0.75,0,0],[1,0,0],[0,1,0],[0.25,1,0],[0.5,1,0],[0.75,1,0],[1,1,0],[0,0.25,0],[0,0.5,0],[0,0.75,0],[1,0.25,0],[1,0.5,0],[1,0.75,0]];outlineConnect=0;fontColor=#232F3E;fillColor=#E7157B;strokeColor=#ffffff;dashed=0;verticalLabelPosition=bottom;verticalAlign=top;align=center;html=1;fontSize=12;fontStyle=0;aspect=fixed;shape=mxgraph.aws4.resourceIcon;resIcon=mxgraph.aws4.api_gateway;" vertex="1" parent="1">
          <mxGeometry x="350" y="270" width="78" height="78" as="geometry" />
        </mxCell>
        <mxCell id="w0JvV6dThhApG_6P3n8y-8" style="edgeStyle=orthogonalEdgeStyle;rounded=0;orthogonalLoop=1;jettySize=auto;html=1;" edge="1" parent="1" source="w0JvV6dThhApG_6P3n8y-5" target="w0JvV6dThhApG_6P3n8y-4">
          <mxGeometry relative="1" as="geometry" />
        </mxCell>
        <mxCell id="w0JvV6dThhApG_6P3n8y-5" value="&lt;div&gt;Frontend (TypeScript project hosted on S3)&lt;/div&gt;&lt;div&gt;&lt;br&gt;&lt;/div&gt;" style="outlineConnect=0;dashed=0;verticalLabelPosition=bottom;verticalAlign=top;align=center;html=1;shape=mxgraph.aws3.s3;fillColor=#E05243;gradientColor=none;" vertex="1" parent="1">
          <mxGeometry x="100" y="262.5" width="76.5" height="93" as="geometry" />
        </mxCell>
        <mxCell id="w0JvV6dThhApG_6P3n8y-12" style="edgeStyle=orthogonalEdgeStyle;rounded=0;orthogonalLoop=1;jettySize=auto;html=1;exitX=1;exitY=0.5;exitDx=0;exitDy=0;exitPerimeter=0;" edge="1" parent="1" source="w0JvV6dThhApG_6P3n8y-6">
          <mxGeometry relative="1" as="geometry">
            <mxPoint x="910" y="309" as="targetPoint" />
          </mxGeometry>
        </mxCell>
        <mxCell id="w0JvV6dThhApG_6P3n8y-6" value="Backend (handler.rs)" style="sketch=0;points=[[0,0,0],[0.25,0,0],[0.5,0,0],[0.75,0,0],[1,0,0],[0,1,0],[0.25,1,0],[0.5,1,0],[0.75,1,0],[1,1,0],[0,0.25,0],[0,0.5,0],[0,0.75,0],[1,0.25,0],[1,0.5,0],[1,0.75,0]];outlineConnect=0;fontColor=#232F3E;fillColor=#ED7100;strokeColor=#ffffff;dashed=0;verticalLabelPosition=bottom;verticalAlign=top;align=center;html=1;fontSize=12;fontStyle=0;aspect=fixed;shape=mxgraph.aws4.resourceIcon;resIcon=mxgraph.aws4.lambda;" vertex="1" parent="1">
          <mxGeometry x="650" y="270" width="78" height="78" as="geometry" />
        </mxCell>
        <mxCell id="w0JvV6dThhApG_6P3n8y-18" style="edgeStyle=orthogonalEdgeStyle;rounded=0;orthogonalLoop=1;jettySize=auto;html=1;" edge="1" parent="1" source="w0JvV6dThhApG_6P3n8y-7" target="w0JvV6dThhApG_6P3n8y-20">
          <mxGeometry relative="1" as="geometry">
            <mxPoint x="785" y="729" as="targetPoint" />
          </mxGeometry>
        </mxCell>
        <mxCell id="w0JvV6dThhApG_6P3n8y-28" style="edgeStyle=orthogonalEdgeStyle;rounded=0;orthogonalLoop=1;jettySize=auto;html=1;" edge="1" parent="1" source="w0JvV6dThhApG_6P3n8y-7" target="w0JvV6dThhApG_6P3n8y-27">
          <mxGeometry relative="1" as="geometry" />
        </mxCell>
        <mxCell id="w0JvV6dThhApG_6P3n8y-31" style="edgeStyle=orthogonalEdgeStyle;rounded=0;orthogonalLoop=1;jettySize=auto;html=1;" edge="1" parent="1" source="w0JvV6dThhApG_6P3n8y-7" target="w0JvV6dThhApG_6P3n8y-2">
          <mxGeometry relative="1" as="geometry">
            <mxPoint x="1140" y="300" as="targetPoint" />
            <Array as="points">
              <mxPoint x="444" y="620" />
              <mxPoint x="1140" y="620" />
              <mxPoint x="1140" y="304" />
            </Array>
          </mxGeometry>
        </mxCell>
        <mxCell id="w0JvV6dThhApG_6P3n8y-32" style="edgeStyle=orthogonalEdgeStyle;rounded=0;orthogonalLoop=1;jettySize=auto;html=1;" edge="1" parent="1" source="w0JvV6dThhApG_6P3n8y-7" target="w0JvV6dThhApG_6P3n8y-29">
          <mxGeometry relative="1" as="geometry">
            <mxPoint x="560" y="1010" as="targetPoint" />
            <Array as="points">
              <mxPoint x="561" y="729" />
              <mxPoint x="561" y="969" />
            </Array>
          </mxGeometry>
        </mxCell>
        <mxCell id="w0JvV6dThhApG_6P3n8y-7" value="GainsIQProcessingLambda" style="sketch=0;points=[[0,0,0],[0.25,0,0],[0.5,0,0],[0.75,0,0],[1,0,0],[0,1,0],[0.25,1,0],[0.5,1,0],[0.75,1,0],[1,1,0],[0,0.25,0],[0,0.5,0],[0,0.75,0],[1,0.25,0],[1,0.5,0],[1,0.75,0]];outlineConnect=0;fontColor=#232F3E;fillColor=#ED7100;strokeColor=#ffffff;dashed=0;verticalLabelPosition=bottom;verticalAlign=top;align=center;html=1;fontSize=12;fontStyle=0;aspect=fixed;shape=mxgraph.aws4.resourceIcon;resIcon=mxgraph.aws4.lambda;" vertex="1" parent="1">
          <mxGeometry x="405" y="690" width="78" height="78" as="geometry" />
        </mxCell>
        <mxCell id="w0JvV6dThhApG_6P3n8y-9" style="edgeStyle=orthogonalEdgeStyle;rounded=0;orthogonalLoop=1;jettySize=auto;html=1;entryX=0;entryY=0.5;entryDx=0;entryDy=0;entryPerimeter=0;" edge="1" parent="1" source="w0JvV6dThhApG_6P3n8y-4" target="w0JvV6dThhApG_6P3n8y-6">
          <mxGeometry relative="1" as="geometry" />
        </mxCell>
        <mxCell id="w0JvV6dThhApG_6P3n8y-13" style="edgeStyle=orthogonalEdgeStyle;rounded=0;orthogonalLoop=1;jettySize=auto;html=1;entryX=0;entryY=0.5;entryDx=0;entryDy=0;entryPerimeter=0;" edge="1" parent="1" source="w0JvV6dThhApG_6P3n8y-6" target="w0JvV6dThhApG_6P3n8y-1">
          <mxGeometry relative="1" as="geometry" />
        </mxCell>
        <mxCell id="w0JvV6dThhApG_6P3n8y-14" style="edgeStyle=orthogonalEdgeStyle;rounded=0;orthogonalLoop=1;jettySize=auto;html=1;entryX=0;entryY=0.5;entryDx=0;entryDy=0;entryPerimeter=0;strokeColor=default;" edge="1" parent="1" source="w0JvV6dThhApG_6P3n8y-6" target="w0JvV6dThhApG_6P3n8y-3">
          <mxGeometry relative="1" as="geometry" />
        </mxCell>
        <mxCell id="w0JvV6dThhApG_6P3n8y-15" value="Monthly EventBridge Rule" style="sketch=0;points=[[0,0,0],[0.25,0,0],[0.5,0,0],[0.75,0,0],[1,0,0],[0,1,0],[0.25,1,0],[0.5,1,0],[0.75,1,0],[1,1,0],[0,0.25,0],[0,0.5,0],[0,0.75,0],[1,0.25,0],[1,0.5,0],[1,0.75,0]];outlineConnect=0;fontColor=#232F3E;fillColor=#E7157B;strokeColor=#ffffff;dashed=0;verticalLabelPosition=bottom;verticalAlign=top;align=center;html=1;fontSize=12;fontStyle=0;aspect=fixed;shape=mxgraph.aws4.resourceIcon;resIcon=mxgraph.aws4.eventbridge;" vertex="1" parent="1">
          <mxGeometry x="95" y="690" width="78" height="78" as="geometry" />
        </mxCell>
        <mxCell id="w0JvV6dThhApG_6P3n8y-16" style="edgeStyle=orthogonalEdgeStyle;rounded=0;orthogonalLoop=1;jettySize=auto;html=1;entryX=0;entryY=0.5;entryDx=0;entryDy=0;entryPerimeter=0;" edge="1" parent="1" source="w0JvV6dThhApG_6P3n8y-15" target="w0JvV6dThhApG_6P3n8y-7">
          <mxGeometry relative="1" as="geometry" />
        </mxCell>
        <mxCell id="w0JvV6dThhApG_6P3n8y-19" value="SNS Notification to subscribed emails" style="sketch=0;points=[[0,0,0],[0.25,0,0],[0.5,0,0],[0.75,0,0],[1,0,0],[0,1,0],[0.25,1,0],[0.5,1,0],[0.75,1,0],[1,1,0],[0,0.25,0],[0,0.5,0],[0,0.75,0],[1,0.25,0],[1,0.5,0],[1,0.75,0]];outlineConnect=0;fontColor=#232F3E;fillColor=#E7157B;strokeColor=#ffffff;dashed=0;verticalLabelPosition=bottom;verticalAlign=top;align=center;html=1;fontSize=12;fontStyle=0;aspect=fixed;shape=mxgraph.aws4.resourceIcon;resIcon=mxgraph.aws4.sns;" vertex="1" parent="1">
          <mxGeometry x="647" y="690" width="78" height="78" as="geometry" />
        </mxCell>
        <mxCell id="w0JvV6dThhApG_6P3n8y-20" value="&lt;div&gt;Email delivered to recipients&lt;br&gt;&lt;/div&gt;&lt;div&gt;&lt;br&gt;&lt;/div&gt;" style="verticalLabelPosition=bottom;html=1;verticalAlign=top;strokeWidth=1;align=center;outlineConnect=0;dashed=0;outlineConnect=0;shape=mxgraph.aws3d.email;aspect=fixed;strokeColor=#292929;" vertex="1" parent="1">
          <mxGeometry x="955" y="701" width="43" height="56.99999999999999" as="geometry" />
        </mxCell>
        <mxCell id="w0JvV6dThhApG_6P3n8y-27" value="&lt;div&gt;OpenAI API&lt;/div&gt;&lt;div&gt;(GPT-4o)&lt;br&gt;&lt;/div&gt;" style="ellipse;shape=cloud;whiteSpace=wrap;html=1;" vertex="1" parent="1">
          <mxGeometry x="384" y="950" width="120" height="80" as="geometry" />
        </mxCell>
        <mxCell id="w0JvV6dThhApG_6P3n8y-29" value="Model response saved to S3" style="sketch=0;points=[[0,0,0],[0.25,0,0],[0.5,0,0],[0.75,0,0],[1,0,0],[0,1,0],[0.25,1,0],[0.5,1,0],[0.75,1,0],[1,1,0],[0,0.25,0],[0,0.5,0],[0,0.75,0],[1,0.25,0],[1,0.5,0],[1,0.75,0]];outlineConnect=0;fontColor=#232F3E;fillColor=#7AA116;strokeColor=#ffffff;dashed=0;verticalLabelPosition=bottom;verticalAlign=top;align=center;html=1;fontSize=12;fontStyle=0;aspect=fixed;shape=mxgraph.aws4.resourceIcon;resIcon=mxgraph.aws4.s3;" vertex="1" parent="1">
          <mxGeometry x="920" y="930" width="78" height="78" as="geometry" />
        </mxCell>
      </root>
    </mxGraphModel>
  </diagram>
</mxfile>
